<svg xmlns="http://www.w3.org/2000/svg" viewBox="0 0 500 500"><g id="freepik--background-complete--inject-431"><path d="M237,89.43c-.1-.37-.15-.59-1.13-1.27l0,0a2,2,0,0,1-.26-.13c-1.3-.87-3.91-2.42-9.32-5.58l1.05-.41c2.62-1,4.06-1.56,3.39-3.44s-2.23-1.37-4.81-.5c-1,.34-2.26.77-3.67,1.27a1.73,1.73,0,0,1-1.44-.12l-1.38-.81a1.72,1.72,0,0,1,.35-3.12l.4-.13,2.7-.88c.91-.31,2.81-1,2.2-2.82s-2.41-1.34-3.41-1.07l-2.72.76c-1.91.56-4.42,1.3-7.21,2.14a1.7,1.7,0,0,1-1.36-.15L207,71.18a1.71,1.71,0,0,1,0-3l4.83-2.71a1.73,1.73,0,0,1,1.3-.15c2.65.75,5,1.4,6.87,1.89l2.76.72c.94.23,2.89.72,3.39-1.19s-1.32-2.42-2.3-2.74l-2.72-.83-3.42-1,5.56-3.13a1.73,1.73,0,0,1,1.3-.15c1.57.43,3,.81,4.07,1.09,2.75.71,4.27,1.1,4.82-.8s-.94-2.4-3.69-3.24l-.67-.2,3.34-1.9c3.46-2,4.39-2.51,3.44-4.24a2,2,0,0,0-1.18-.94c-.4-.12-.61-.18-1.68.31v0l-.14.09c-1.09.51-3,1.54-6.62,3.54.13-.57.26-1.1.36-1.57.61-2.73,1-4.24-1-4.73s-2.33,1-3.07,3.73c-.33,1.22-.75,2.84-1.2,4.66a1.74,1.74,0,0,1-.83,1.08l-2,1.12a1.72,1.72,0,0,1-2.48-2c.05-.2.11-.39.16-.58L217,51.6c.25-.93.76-2.86-1.08-3.39s-2.52,1.3-2.83,2.23l-.87,2.69c-.67,2.1-1.55,4.95-2.51,8.12a1.74,1.74,0,0,1-.8,1l-4.28,2.39a1.72,1.72,0,0,1-2.55-1.5c0-1.47,0-2.9,0-4.31a1.74,1.74,0,0,1,.5-1.2c2.15-2.17,4.07-4.13,5.51-5.62L210,50c.7-.75,2-2.15.61-3.55s-2.76,0-3.52.69l-2,2-.13.13A1.72,1.72,0,0,1,202,48c0-.78,0-1.55,0-2.3a1.74,1.74,0,0,1,.5-1.2c1.34-1.35,2.53-2.58,3.42-3.51,2-2.06,3-3.19,1.61-4.63S205,36,203,38l-1,.94c0-2.2,0-4.08,0-5.56,0-1.23,0-2.19,0-2.84,0-1-.06-2.92-2-2.92s-2,1.89-2,2.9c0,.65,0,1.59,0,2.8,0,1.51,0,3.43,0,5.69l-.71-.64c-2-1.81-3.26-2.9-4.61-1.42s-.19,2.6,1.76,4.49c.79.77,1.82,1.76,3,2.85a1.72,1.72,0,0,1,.55,1.25c0,2,0,4.17,0,6.44-1.07-1.08-2-2.06-2.86-2.88l-2-2c-.74-.71-2.11-2-3.53-.66s-.08,2.75.62,3.52L191.93,52c1.4,1.48,3.26,3.43,5.36,5.59a1.72,1.72,0,0,1,.49,1.19c0,1.32,0,2.67,0,4a1.71,1.71,0,0,1-2.58,1.48l-3.66-2.11a1.73,1.73,0,0,1-.82-1.15c-.65-3.19-1.25-6.05-1.72-8.19l-.62-2.78c-.24-1-.7-2.88-2.6-2.48s-1.57,2.28-1.4,3.31l.51,2.8c.1.48.19,1,.3,1.54a1.72,1.72,0,0,1-2.55,1.81l-2.24-1.29a1.71,1.71,0,0,1-.82-1.14c-.35-1.68-.67-3.17-.94-4.33-.63-2.79-1-4.33-2.92-3.92s-1.7,1.94-1.19,4.76q.12.65.27,1.41l-5.57-3.17-2.59-1.46c-.9-.5-2.6-1.44-3.57.25s.62,2.66,1.57,3.23L167.21,53l5.19,3-.81.21c-2.63.69-4.21,1.1-3.75,3a2,2,0,0,0,.85,1.25c.78.5,1.19.4,3.87-.17,1.19-.26,2.75-.61,4.49-1a1.68,1.68,0,0,1,1.26.19L182,61.64l-2.76.54-2.78.57c-.94.21-2.9.64-2.52,2.49s2.31,1.67,3.28,1.52l2.79-.46,7-1.24a1.66,1.66,0,0,1,1.17.2l4.87,2.83a1.71,1.71,0,0,1,0,3l-3.84,2.15a1.72,1.72,0,0,1-1.33.15c-3-.88-5.64-1.65-7.66-2.21l-2.75-.76c-1-.24-2.91-.75-3.39,1.07s1.31,2.54,2.25,2.85l2.71.86.48.15a1.72,1.72,0,0,1,.35,3.14l-1.48.83-.05,0c-2.27-.66-4.34-1.25-5.84-1.66-2.75-.74-4.27-1.15-4.83.77s.93,2.39,3.65,3.26l1.87.58c-4.64,2.62-7,4-8.15,4.73l-.21.1v0c-1,.67-1,.89-1.15,1.27a2,2,0,0,0,1.34,2.4c.38.11.61.18,1.69-.31v0l.19-.11c1.21-.57,3.37-1.75,7.58-4.08a3.38,3.38,0,0,1-.08.34c-.62,2.64-1,4.24.93,4.73s2.39-1.07,3.13-3.68c.27-1,.6-2.16,1-3.52a1.67,1.67,0,0,1,.82-1.05L185,80.47c-.42,1.36-.79,2.59-1.1,3.63l-.8,2.72c-.28,1-.78,2.8,1.1,3.43S186.69,89,187,88l.91-2.68c.63-1.9,1.44-4.43,2.34-7.25a1.66,1.66,0,0,1,.8-1l4.14-2.31a1.72,1.72,0,0,1,2.55,1.5c0,1.37,0,2.72,0,4a1.72,1.72,0,0,1-.47,1.17c-2.16,2.32-4.1,4.41-5.53,6l-1.91,2.13c-.67.76-1.92,2.19-.54,3.51s2.83-.05,3.53-.75l2-2,0,0a1.7,1.7,0,0,1,2.93,1.18v1.07a1.65,1.65,0,0,1-.46,1.17c-1.27,1.36-2.39,2.6-3.24,3.55-1.9,2.12-2.95,3.3-1.49,4.65s2.57.26,4.56-1.79l.66-.69c0,2.28,0,4.21,0,5.74,0,1.28,0,2.28,0,3,0,1,.06,3,2,3s2-1.93,2-3c0-.68,0-1.68,0-3,0-1.68,0-3.85,0-6.42l1,.84c2.14,1.79,3.33,2.77,4.66,1.27s.17-2.54-1.9-4.43c-.83-.76-1.92-1.73-3.14-2.81a1.71,1.71,0,0,1-.58-1.29V91.22a1.72,1.72,0,0,1,2.9-1.24l.06,0L207.07,92c.72.65,2.2,2,3.5.6s0-2.83-.68-3.54l-2-2c-1.39-1.39-3.24-3.2-5.31-5.22a1.71,1.71,0,0,1-.53-1.23c0-1.41,0-2.84,0-4.31a1.71,1.71,0,0,1,2.57-1.48l3.62,2.09a1.67,1.67,0,0,1,.77,1c1,3,1.86,5.67,2.54,7.68l.94,2.69c.34,1,1,2.76,2.86,2.17s1.3-2.44,1-3.45l-.82-2.72c-.34-1.09-.74-2.38-1.2-3.81l4.23,2.44a1.69,1.69,0,0,1,.77,1c.63,1.91,1.21,3.62,1.65,4.9,1,2.71,1.47,4.2,3.35,3.56s1.47-2.12.64-4.86l-.32-1.05c5.08,2.91,7.61,4.34,9,5l.26.16,0,0c1.08.51,1.3.45,1.67.35A2,2,0,0,0,237,89.43Z" style="fill:#f5f5f5"></path><path d="M88.56,376.18c-.07-.27-.11-.43-.83-.93v0l-.19-.1c-1-.64-2.87-1.78-6.84-4.1l.78-.3c1.92-.74,3-1.15,2.48-2.52s-1.64-1-3.53-.37l-2.7.94a1.25,1.25,0,0,1-1-.1l-1-.59a1.26,1.26,0,0,1,.26-2.29l.29-.09,2-.65c.66-.23,2.06-.7,1.61-2.07s-1.76-1-2.5-.79l-2,.56c-1.4.41-3.24.95-5.29,1.57a1.25,1.25,0,0,1-1-.11l-2.46-1.43a1.26,1.26,0,0,1,0-2.19l3.54-2a1.23,1.23,0,0,1,1-.11l5,1.38,2,.53c.69.17,2.13.53,2.5-.88s-1-1.77-1.7-2l-2-.61-2.51-.74,4.08-2.3a1.26,1.26,0,0,1,1-.11c1.15.32,2.18.59,3,.8,2,.52,3.13.81,3.54-.58s-.69-1.77-2.71-2.38l-.49-.15,2.45-1.39c2.54-1.46,3.22-1.85,2.52-3.12a1.45,1.45,0,0,0-.86-.69c-.29-.08-.45-.13-1.24.23h0l-.1.06c-.8.38-2.2,1.14-4.86,2.6.1-.42.19-.81.26-1.15.45-2,.7-3.11-.73-3.47s-1.72.75-2.25,2.73c-.25.9-.55,2.09-.89,3.42a1.23,1.23,0,0,1-.61.8L75,352.3a1.26,1.26,0,0,1-1.82-1.45l.12-.43.56-2c.18-.68.56-2.1-.79-2.49s-1.85.95-2.08,1.64l-.64,2c-.49,1.54-1.13,3.63-1.84,6a1.24,1.24,0,0,1-.59.74L64.8,358a1.26,1.26,0,0,1-1.87-1.11v-3.15a1.24,1.24,0,0,1,.37-.89c1.57-1.59,3-3,4-4.12l1.44-1.51c.52-.56,1.47-1.58.45-2.61s-2,0-2.58.51l-1.5,1.45-.09.09a1.27,1.27,0,0,1-2.15-.9v-1.69a1.21,1.21,0,0,1,.36-.88c1-1,1.85-1.89,2.51-2.58,1.43-1.51,2.22-2.34,1.19-3.4s-1.88-.22-3.38,1.23l-.71.69c0-1.62,0-3,0-4.09,0-.9,0-1.6,0-2.08,0-.75,0-2.14-1.48-2.14s-1.46,1.38-1.47,2.13c0,.47,0,1.16,0,2.05,0,1.11,0,2.52,0,4.18l-.52-.47c-1.49-1.33-2.39-2.13-3.39-1.05s-.13,1.92,1.29,3.3l2.2,2.1a1.22,1.22,0,0,1,.4.91c0,1.48,0,3.06,0,4.73-.78-.8-1.49-1.51-2.1-2.12l-1.47-1.46c-.55-.52-1.55-1.49-2.59-.49s-.06,2,.45,2.59l1.41,1.51c1,1.09,2.4,2.52,3.93,4.11a1.27,1.27,0,0,1,.36.88v3a1.27,1.27,0,0,1-1.9,1.09L55.2,356.2a1.21,1.21,0,0,1-.6-.84c-.48-2.34-.93-4.44-1.27-6l-.46-2c-.17-.74-.51-2.12-1.9-1.82s-1.16,1.67-1,2.43l.38,2.05c.06.35.14.73.21,1.13a1.26,1.26,0,0,1-1.87,1.33L47,351.48a1.19,1.19,0,0,1-.6-.83c-.26-1.23-.5-2.33-.69-3.18-.47-2.05-.72-3.18-2.15-2.88s-1.25,1.43-.87,3.5c.06.31.13.66.2,1l-4.09-2.34-1.9-1.07c-.67-.37-1.91-1.05-2.62.19s.45,1.95,1.15,2.37c.43.26,1.07.65,1.9,1.13,1,.6,2.29,1.36,3.8,2.24l-.59.16c-1.93.5-3.09.81-2.76,2.2a1.46,1.46,0,0,0,.63.92c.57.36.87.3,2.84-.13l3.3-.74a1.24,1.24,0,0,1,.92.13l2.74,1.6-2,.39-2,.42c-.69.16-2.13.47-1.85,1.83s1.7,1.22,2.41,1.11l2.05-.33c1.37-.23,3.16-.55,5.16-.91a1.2,1.2,0,0,1,.85.14l3.58,2.08a1.26,1.26,0,0,1,0,2.19l-2.82,1.58a1.27,1.27,0,0,1-1,.11c-2.19-.65-4.15-1.21-5.63-1.63l-2-.55c-.69-.18-2.13-.56-2.48.79s1,1.85,1.65,2.08l2,.64.36.11a1.26,1.26,0,0,1,.25,2.3l-1.08.61h0c-1.67-.49-3.18-.92-4.28-1.22-2-.55-3.14-.85-3.55.56s.68,1.76,2.68,2.39l1.37.43c-3.41,1.93-5.11,2.9-6,3.47l-.16.08v0c-.73.49-.77.65-.85.93a1.45,1.45,0,0,0,1,1.76c.28.09.44.13,1.24-.23v0l.13-.08c.89-.42,2.48-1.29,5.57-3a2,2,0,0,0,0,.24c-.46,1.94-.74,3.11.68,3.48s1.75-.79,2.29-2.7c.2-.71.44-1.59.71-2.59a1.23,1.23,0,0,1,.6-.77l3.47-1.93c-.3,1-.58,1.9-.81,2.67l-.58,2c-.21.72-.58,2.06.81,2.52s1.79-.92,2-1.63l.67-2c.46-1.4,1.06-3.25,1.72-5.32a1.23,1.23,0,0,1,.58-.72l3-1.7a1.26,1.26,0,0,1,1.88,1.1v3a1.26,1.26,0,0,1-.34.86c-1.59,1.7-3,3.24-4.06,4.4L54,376.34c-.5.56-1.41,1.61-.4,2.58s2.08,0,2.6-.55l1.45-1.5,0,0a1.25,1.25,0,0,1,2.15.87v.79a1.22,1.22,0,0,1-.34.85c-.93,1-1.75,1.91-2.37,2.61-1.4,1.56-2.17,2.42-1.1,3.41s1.88.19,3.34-1.31l.49-.5c0,1.66,0,3.09,0,4.21,0,.94,0,1.67,0,2.16,0,.76,0,2.18,1.47,2.18s1.46-1.42,1.48-2.18c0-.5,0-1.23,0-2.17,0-1.24,0-2.83,0-4.72.26.22.5.43.73.61,1.57,1.32,2.44,2,3.42.94s.12-1.87-1.4-3.25c-.61-.56-1.4-1.27-2.3-2.07a1.26,1.26,0,0,1-.43-.94v-.84a1.26,1.26,0,0,1,2.13-.91l0,0,1.52,1.42c.53.47,1.62,1.46,2.57.44s0-2.08-.5-2.6l-1.46-1.48c-1-1-2.38-2.35-3.9-3.83a1.3,1.3,0,0,1-.38-.91v-3.16a1.26,1.26,0,0,1,1.89-1.09L67.48,367a1.26,1.26,0,0,1,.56.7c.71,2.19,1.37,4.16,1.87,5.64l.68,2c.26.71.73,2,2.1,1.59s1-1.79.75-2.53l-.61-2c-.24-.8-.54-1.75-.87-2.79l3.1,1.78a1.31,1.31,0,0,1,.57.7c.46,1.41.88,2.66,1.21,3.6.69,2,1.08,3.08,2.45,2.61s1.08-1.55.47-3.57c-.07-.23-.15-.49-.23-.77,3.73,2.14,5.58,3.19,6.58,3.69a.78.78,0,0,1,.19.12l0,0c.79.37,1,.32,1.23.25A1.44,1.44,0,0,0,88.56,376.18Z" style="fill:#f5f5f5"></path><circle cx="440.37" cy="146.63" r="8.01" style="fill:#ebebeb"></circle><path d="M313.7,50.05A6.08,6.08,0,1,1,307.62,44,6.08,6.08,0,0,1,313.7,50.05Z" style="fill:#f5f5f5"></path><path d="M118.8,182.5a6.08,6.08,0,1,1-6.08-6.07A6.08,6.08,0,0,1,118.8,182.5Z" style="fill:#f5f5f5"></path><path d="M130.68,394.66a6.08,6.08,0,1,1-6.08-6.08A6.08,6.08,0,0,1,130.68,394.66Z" style="fill:#f5f5f5"></path><circle cx="444.38" cy="395.89" r="6.08" style="fill:#f5f5f5"></circle><path d="M410.3,260.72a4,4,0,1,1-4-4A4,4,0,0,1,410.3,260.72Z" style="fill:#f5f5f5"></path><path d="M109.82,27.61a4,4,0,1,1-4-4A4,4,0,0,1,109.82,27.61Z" style="fill:#f5f5f5"></path><path d="M47.29,299.38a4,4,0,1,1-4-4A4,4,0,0,1,47.29,299.38Z" style="fill:#f5f5f5"></path><path d="M410.3,182.5a4,4,0,1,1-4-4A4,4,0,0,1,410.3,182.5Z" style="fill:#f5f5f5"></path><path d="M448.38,50.05a4,4,0,1,1-4-4A4,4,0,0,1,448.38,50.05Z" style="fill:#f5f5f5"></path><path d="M51.3,169.76a4,4,0,1,1-4-4A4,4,0,0,1,51.3,169.76Z" style="fill:#f5f5f5"></path><path d="M461.09,221.29c-.13-.17-.2-.27-.83-.42v0l-.16,0c-.82-.18-2.46-.44-5.82-1l.45-.42c1.13-1,1.74-1.6,1-2.41s-1.4-.25-2.53.7l-1.61,1.38a.93.93,0,0,1-.75.22l-.85-.13a.94.94,0,0,1-.45-1.65l.18-.15,1.19-1c.39-.34,1.23-1,.55-1.86s-1.49-.2-1.94.13l-1.22.93c-.86.66-2,1.54-3.22,2.52a1,1,0,0,1-.72.19L442.3,218a.94.94,0,0,1-.58-1.52l1.91-2.33a.89.89,0,0,1,.62-.33l3.85-.41,1.54-.19c.52-.07,1.61-.21,1.48-1.28s-1.15-1-1.71-.92l-1.54.12-1.93.17,2.19-2.69a.91.91,0,0,1,.63-.33l2.27-.26c1.54-.19,2.38-.29,2.28-1.37s-.95-1-2.51-.9l-.38,0c.52-.63,1-1.18,1.31-1.62,1.36-1.69,1.72-2.15.9-2.83a1.08,1.08,0,0,0-.79-.24c-.22,0-.34,0-.79.49h0l-.06.07c-.45.48-1.21,1.38-2.64,3.11,0-.31-.09-.6-.13-.86-.23-1.51-.36-2.34-1.44-2.19s-1,1-.82,2.49c.08.68.19,1.59.32,2.6a.92.92,0,0,1-.2.71l-.8,1a.93.93,0,0,1-1.65-.51l0-.33-.16-1.53c-.06-.52-.18-1.6-1.22-1.5s-1,1.16-1,1.69l.09,1.54c.08,1.19.2,2.81.35,4.6a.92.92,0,0,1-.21.67l-1.69,2.05a.93.93,0,0,1-1.59-.25l-.85-2.17a.92.92,0,0,1,0-.71l1.67-3.94.58-1.43c.21-.52.59-1.49-.4-1.91s-1.4.53-1.64,1l-.64,1.41,0,.08a.93.93,0,0,1-1.72,0l-.46-1.16a1,1,0,0,1,0-.71c.41-.95.76-1.81,1-2.46.58-1.43.9-2.21-.1-2.66s-1.35.35-2,1.76c-.1.2-.2.43-.31.67-.44-1.12-.82-2.06-1.12-2.81s-.45-1.1-.59-1.43c-.21-.51-.61-1.46-1.59-1.07s-.63,1.35-.44,1.86c.12.33.3.81.54,1.43s.66,1.74,1.11,2.88l-.49-.18c-1.39-.51-2.23-.82-2.61.2s.42,1.35,1.78,1.92c.56.23,1.27.53,2.08.85a.93.93,0,0,1,.53.52c.39,1,.82,2.11,1.27,3.26l-2-.89-1.41-.61c-.52-.21-1.48-.6-1.92.37s.51,1.41,1,1.66l1.39.66,3.82,1.76a.92.92,0,0,1,.48.51l.8,2a.92.92,0,0,1-1,1.26l-2.28-.34a1,1,0,0,1-.64-.41c-1-1.49-1.84-2.82-2.5-3.8l-.87-1.29c-.32-.46-.92-1.32-1.81-.73s-.34,1.46,0,1.95l.81,1.31c.14.23.29.47.46.72a.94.94,0,0,1-.93,1.43l-1.39-.21a.93.93,0,0,1-.64-.41c-.51-.78-1-1.47-1.34-2-.87-1.28-1.35-2-2.26-1.39s-.47,1.32.35,2.64c.13.2.26.42.42.66l-3.45-.5-1.6-.22c-.56-.07-1.6-.21-1.76.84s.84,1.22,1.44,1.32l1.61.27,3.24.51-.37.26c-1.19.87-1.91,1.4-1.3,2.27a1.05,1.05,0,0,0,.68.46c.49.1.68,0,1.92-.86.55-.36,1.27-.85,2.07-1.4a.88.88,0,0,1,.67-.16l2.32.36-1.29.82-1.29.84c-.43.29-1.34.9-.78,1.76s1.5.38,2,.11l1.32-.78,3.31-2a.88.88,0,0,1,.63-.13l3,.46a.93.93,0,0,1,.58,1.51l-1.52,1.86a.91.91,0,0,1-.64.33c-1.67.15-3.18.29-4.31.41l-1.54.17c-.53.06-1.62.19-1.5,1.21s1.16,1,1.7,1l1.54-.1.28,0a.94.94,0,0,1,.8,1.52l-.59.71h0c-1.29.12-2.45.23-3.28.33-1.55.17-2.4.26-2.3,1.35s.95,1,2.5.92l1.06-.08c-1.83,2.25-2.74,3.38-3.18,4l-.09.1h0c-.36.53-.35.66-.33.87a1.08,1.08,0,0,0,1.16.95c.22,0,.34,0,.79-.5h0l.07-.09c.5-.53,1.36-1.56,3-3.57l0,.18c.21,1.46.33,2.35,1.41,2.21s1-1,.85-2.48c-.06-.54-.13-1.22-.22-2a1,1,0,0,1,.21-.7L433,227.1c.06.77.11,1.46.16,2.06l.14,1.53c.06.55.16,1.57,1.24,1.51s1-1.11,1-1.67l-.08-1.54c-.06-1.09-.15-2.53-.26-4.13a1,1,0,0,1,.21-.66l1.64-2a.94.94,0,0,1,1.59.25l.8,2a.92.92,0,0,1,0,.69c-.63,1.6-1.19,3-1.61,4.13l-.54,1.45c-.18.52-.53,1.49.43,1.89s1.42-.59,1.64-1.08l.59-1.43v0a.93.93,0,0,1,1.72,0l.21.55a.89.89,0,0,1,0,.68c-.37.94-.69,1.79-.93,2.44-.54,1.45-.83,2.25.17,2.65s1.35-.38,1.95-1.81l.2-.48,1.16,2.89c.26.65.47,1.15.61,1.49.22.52.62,1.48,1.6,1.09s.63-1.37.43-1.9l-.57-1.5c-.33-.86-.75-2-1.26-3.26l.67.23c1.44.48,2.23.74,2.61-.29s-.42-1.31-1.84-1.86l-2.15-.8a.93.93,0,0,1-.55-.53c-.08-.19-.15-.38-.23-.58A.93.93,0,0,1,445,228h0l1.43.57c.5.18,1.52.57,1.89-.4s-.56-1.43-1.05-1.65l-1.4-.62c-1-.43-2.28-1-3.73-1.59a.93.93,0,0,1-.51-.52l-.85-2.17a.93.93,0,0,1,1-1.27l2.25.34a.91.91,0,0,1,.58.33c1.08,1.32,2.07,2.5,2.81,3.38l1,1.18c.37.41,1.05,1.19,1.88.52s.17-1.49-.17-1.94l-1-1.21-1.36-1.69,2.62.39a.91.91,0,0,1,.58.33c.7.84,1.33,1.59,1.81,2.14,1,1.19,1.58,1.84,2.4,1.14s.32-1.36-.64-2.59l-.38-.47c3.15.47,4.72.69,5.54.76l.16,0v0c.65,0,.75,0,.91-.16A1.07,1.07,0,0,0,461.09,221.29Z" style="fill:#e0e0e0"></path><path d="M83.26,248.78c-.05-.24-.08-.39-.69-.86v0l-.16-.1c-.8-.6-2.44-1.69-5.82-3.92l.69-.22c1.73-.56,2.68-.87,2.3-2.11s-1.39-1-3.08-.48l-2.42.69a1.11,1.11,0,0,1-.92-.13l-.86-.56a1.12,1.12,0,0,1,.33-2l.26-.07,1.77-.47c.6-.17,1.85-.53,1.52-1.75s-1.51-1-2.17-.81l-1.78.4c-1.25.29-2.89.69-4.72,1.14a1.14,1.14,0,0,1-.88-.15L64.55,236a1.11,1.11,0,0,1,.11-1.92l3.21-1.58a1.14,1.14,0,0,1,.85-.06c1.68.57,3.2,1.08,4.37,1.46l1.75.56c.6.18,1.84.56,2.23-.66s-.76-1.61-1.39-1.84L74,231.31l-2.17-.77,3.7-1.83a1.11,1.11,0,0,1,.84-.05l2.59.84c1.75.56,2.72.86,3.14-.35s-.53-1.58-2.27-2.21l-.43-.16,2.22-1.11c2.3-1.16,2.92-1.47,2.36-2.62a1.28,1.28,0,0,0-.72-.65c-.26-.09-.39-.13-1.1.15v0l-.09.05c-.72.3-2,.9-4.39,2.07.11-.37.2-.7.29-1,.49-1.75.75-2.71-.49-3.09s-1.54.58-2.11,2.3c-.25.78-.58,1.81-.93,3a1.14,1.14,0,0,1-.57.67l-1.34.65a1.11,1.11,0,0,1-1.54-1.36c0-.13.09-.25.13-.37l.58-1.74c.2-.59.59-1.81-.58-2.22s-1.67.75-1.9,1.34l-.65,1.71c-.51,1.33-1.17,3.14-1.9,5.15a1.09,1.09,0,0,1-.55.62l-2.84,1.39a1.11,1.11,0,0,1-1.6-1c.05-.94.1-1.87.14-2.78a1.13,1.13,0,0,1,.37-.76l3.75-3.43,1.34-1.27c.47-.46,1.36-1.32.51-2.27s-1.78-.11-2.29.33l-1.39,1.2-.09.08a1.11,1.11,0,0,1-1.84-.9c0-.5.05-1,.07-1.48a1.13,1.13,0,0,1,.37-.76c.91-.83,1.71-1.57,2.32-2.15,1.33-1.26,2.06-2,1.2-2.93s-1.63-.28-3,.92l-.66.58c.07-1.43.13-2.64.17-3.6,0-.79.06-1.41.07-1.83,0-.66.06-1.89-1.2-1.95s-1.34,1.15-1.39,1.8c0,.42-.07,1-.12,1.81-.06,1-.13,2.21-.22,3.67l-.44-.44c-1.25-1.24-2-2-2.93-1.08s-.2,1.68,1,3c.48.52,1.11,1.19,1.83,1.94a1.1,1.1,0,0,1,.31.82c-.07,1.3-.15,2.69-.23,4.16l-1.74-2L56.26,220c-.45-.48-1.29-1.38-2.25-.54s-.15,1.77.28,2.29l1.17,1.4c.85,1,2,2.32,3.26,3.79a1.14,1.14,0,0,1,.28.79c0,.85-.09,1.72-.14,2.6a1.11,1.11,0,0,1-1.72.87l-2.29-1.49a1.13,1.13,0,0,1-.49-.77c-.31-2.08-.6-3.95-.83-5.34l-.31-1.82c-.12-.66-.35-1.88-1.59-1.68s-1.09,1.41-1,2.09l.23,1.82c0,.31.09.64.14,1A1.11,1.11,0,0,1,49.28,226l-1.4-.91a1.09,1.09,0,0,1-.49-.76c-.17-1.09-.33-2.07-.46-2.83-.31-1.82-.48-2.82-1.75-2.62s-1.16,1.19-.93,3c0,.28.08.59.13.93-1.4-.9-2.57-1.66-3.49-2.24l-1.62-1c-.57-.36-1.63-1-2.32,0s.31,1.73.91,2.14l1.61,1.08c.86.58,2,1.3,3.25,2.15l-.53.11c-1.72.35-2.76.57-2.53,1.81a1.29,1.29,0,0,0,.51.83c.48.35.75.3,2.5,0,.78-.12,1.8-.3,2.94-.5a1.14,1.14,0,0,1,.8.16L48.74,229l-1.8.26-1.81.27c-.61.1-1.89.31-1.71,1.52s1.43,1.16,2.07,1.09l1.81-.2c1.22-.14,2.81-.33,4.58-.56a1.1,1.1,0,0,1,.75.17l3,2a1.11,1.11,0,0,1-.12,1.93L53,236.69a1.07,1.07,0,0,1-.86.05l-4.87-1.69-1.75-.58c-.6-.19-1.85-.58-2.22.58s.75,1.68,1.35,1.91l1.72.65.31.11a1.11,1.11,0,0,1,.11,2l-1,.49h0c-1.44-.51-2.76-1-3.71-1.28-1.75-.57-2.72-.89-3.15.33s.52,1.58,2.25,2.23l1.19.44c-3.09,1.54-4.63,2.31-5.43,2.77l-.14.06v0c-.66.4-.71.54-.79.78a1.28,1.28,0,0,0,.79,1.6c.24.09.38.13,1.1-.15v0L38,247c.8-.32,2.24-1,5-2.37,0,.07,0,.15-.06.21-.49,1.69-.79,2.71.44,3.09s1.58-.6,2.14-2.27c.21-.61.47-1.37.75-2.23a1.08,1.08,0,0,1,.56-.66L50,241.23l-.84,2.31-.6,1.72c-.21.63-.6,1.78.59,2.25s1.63-.72,1.88-1.34l.68-1.69c.47-1.21,1.08-2.81,1.75-4.6a1.1,1.1,0,0,1,.55-.61l2.75-1.35A1.11,1.11,0,0,1,58.4,239c0,.89-.09,1.76-.14,2.61a1,1,0,0,1-.34.74c-1.47,1.42-2.79,2.71-3.77,3.68l-1.31,1.31c-.45.47-1.31,1.35-.46,2.25s1.83.06,2.3-.36L56,248l0,0a1.1,1.1,0,0,1,1.85.86l0,.7a1.11,1.11,0,0,1-.34.73c-.87.84-1.63,1.6-2.21,2.18-1.3,1.31-2,2-1.13,3s1.65.25,3-1l.45-.42c-.07,1.47-.13,2.72-.17,3.71,0,.83-.06,1.47-.08,1.91,0,.66-.06,1.91,1.2,2s1.35-1.17,1.4-1.84c0-.44.07-1.08.12-1.91.07-1.09.15-2.49.25-4.15l.61.58c1.32,1.23,2.05,1.9,3,1s.19-1.64-1.08-2.92c-.51-.52-1.18-1.19-1.93-1.93a1.08,1.08,0,0,1-.33-.85c0-.24,0-.49,0-.74a1.11,1.11,0,0,1,1.91-.7l0,0,1.28,1.32c.44.44,1.35,1.36,2.24.5s.1-1.83-.32-2.31l-1.22-1.36c-.85-.94-2-2.18-3.25-3.55a1.19,1.19,0,0,1-.3-.82c0-.9.1-1.83.15-2.77a1.11,1.11,0,0,1,1.72-.87l2.26,1.47a1.1,1.1,0,0,1,.46.64c.53,2,1,3.72,1.38,5l.52,1.77c.19.63.54,1.81,1.77,1.49s.92-1.53.77-2.19l-.44-1.78c-.18-.72-.4-1.56-.64-2.5l2.65,1.72a1.1,1.1,0,0,1,.46.64c.34,1.25.65,2.37.9,3.21.52,1.78.8,2.77,2,2.42s1-1.32.58-3.12c-.06-.21-.11-.44-.18-.69,3.18,2.06,4.77,3.07,5.62,3.55l.16.11,0,0c.68.37.82.34,1.07.29A1.27,1.27,0,0,0,83.26,248.78Z" style="fill:#e0e0e0"></path><path d="M469.44,344.23c-.1-.38-.15-.59-1.13-1.28v0l-.25-.13c-1.3-.87-3.92-2.42-9.33-5.59l1.06-.4c2.62-1,4.06-1.56,3.39-3.44s-2.24-1.37-4.81-.5c-1,.33-2.26.77-3.68,1.27a1.68,1.68,0,0,1-1.43-.13l-1.38-.8a1.72,1.72,0,0,1,.35-3.12l.4-.13,2.69-.88c.92-.31,2.82-1,2.21-2.82s-2.41-1.34-3.42-1.07l-2.71.76c-1.91.55-4.42,1.3-7.21,2.14a1.7,1.7,0,0,1-1.36-.15L439.48,326a1.71,1.71,0,0,1,0-3l4.83-2.71a1.73,1.73,0,0,1,1.3-.15c2.65.75,5,1.4,6.87,1.89l2.76.72c.93.23,2.89.72,3.39-1.2s-1.32-2.41-2.31-2.73l-2.72-.83-3.41-1,5.56-3.13a1.68,1.68,0,0,1,1.3-.15c1.56.43,3,.8,4.07,1.09,2.75.71,4.27,1.1,4.82-.8s-1-2.4-3.69-3.24l-.67-.2,3.34-1.9c3.46-2,4.39-2.51,3.43-4.24a2,2,0,0,0-1.17-.95c-.4-.11-.62-.17-1.69.32v0l-.13.08c-1.09.52-3,1.55-6.62,3.55l.36-1.57c.61-2.73.95-4.24-1-4.73s-2.34,1-3.07,3.73c-.33,1.22-.75,2.84-1.21,4.66a1.69,1.69,0,0,1-.82,1.08l-2,1.12a1.72,1.72,0,0,1-2.48-2c.05-.2.11-.4.16-.58l.77-2.73c.24-.93.76-2.86-1.08-3.39s-2.52,1.3-2.83,2.23l-.88,2.69c-.66,2.1-1.54,4.95-2.5,8.12a1.74,1.74,0,0,1-.81,1l-4.27,2.38a1.71,1.71,0,0,1-2.55-1.5c0-1.46,0-2.89,0-4.3a1.74,1.74,0,0,1,.5-1.21c2.15-2.16,4.07-4.12,5.51-5.61l2-2.06c.7-.75,2-2.15.61-3.55s-2.76,0-3.52.69l-2,2-.13.13a1.72,1.72,0,0,1-2.92-1.23c0-.79,0-1.55,0-2.3a1.7,1.7,0,0,1,.5-1.2c1.34-1.35,2.52-2.58,3.41-3.51,2-2.06,3-3.19,1.62-4.63s-2.55-.3-4.59,1.67l-1,.94c0-2.21,0-4.08,0-5.56,0-1.23,0-2.19,0-2.84,0-1-.06-2.92-2-2.92s-2,1.89-2,2.9c0,.64,0,1.59,0,2.8,0,1.51,0,3.43,0,5.69l-.71-.64c-2-1.81-3.26-2.91-4.61-1.43s-.19,2.61,1.76,4.5c.79.77,1.82,1.76,3,2.85a1.71,1.71,0,0,1,.54,1.25q0,3,0,6.44l-2.85-2.88-2-2c-.74-.71-2.11-2-3.53-.66s-.08,2.75.62,3.52l1.92,2.07c1.4,1.48,3.26,3.43,5.36,5.59a1.71,1.71,0,0,1,.48,1.19v4a1.72,1.72,0,0,1-2.58,1.48L424,317a1.69,1.69,0,0,1-.82-1.14c-.65-3.19-1.25-6.06-1.72-8.19l-.63-2.78c-.23-1-.69-2.88-2.59-2.48s-1.57,2.28-1.4,3.31l.51,2.8c.09.47.19,1,.3,1.54a1.72,1.72,0,0,1-2.55,1.81l-2.25-1.29a1.73,1.73,0,0,1-.81-1.14c-.35-1.68-.68-3.18-.94-4.33-.63-2.79-1-4.33-2.93-3.92s-1.69,1.94-1.18,4.76q.12.65.27,1.41c-2.23-1.27-4.11-2.35-5.57-3.17l-2.59-1.46c-.91-.5-2.6-1.44-3.57.25s.61,2.66,1.57,3.23l2.58,1.55,5.19,3.05-.81.21c-2.63.69-4.21,1.1-3.76,3a2,2,0,0,0,.86,1.24c.78.5,1.19.41,3.87-.16,1.19-.26,2.75-.61,4.49-1a1.73,1.73,0,0,1,1.26.18l3.72,2.18-2.76.54-2.77.57c-.94.21-2.91.64-2.52,2.49s2.3,1.67,3.28,1.52l2.79-.46c1.87-.32,4.3-.75,7-1.24a1.69,1.69,0,0,1,1.17.19l4.88,2.84a1.71,1.71,0,0,1,0,3L421.71,328a1.69,1.69,0,0,1-1.32.15c-3-.88-5.64-1.65-7.66-2.22L410,325.2c-1-.25-2.91-.75-3.39,1.07s1.31,2.54,2.25,2.85l2.71.86.48.15a1.72,1.72,0,0,1,.34,3.14l-1.47.83,0,0c-2.27-.66-4.34-1.25-5.84-1.66-2.75-.74-4.27-1.15-4.83.77s.93,2.39,3.65,3.26l1.87.58c-4.64,2.62-7,4-8.15,4.72l-.21.11v0c-1,.66-1.05.89-1.16,1.27a2,2,0,0,0,1.35,2.4c.38.11.6.18,1.69-.31v0l.18-.12c1.21-.56,3.38-1.74,7.59-4.07,0,.12-.05.23-.08.33-.63,2.65-1,4.24.93,4.74s2.39-1.07,3.13-3.68c.27-1,.6-2.16,1-3.52a1.67,1.67,0,0,1,.82-1.05l4.73-2.63c-.42,1.36-.79,2.58-1.11,3.63l-.79,2.72c-.28,1-.78,2.8,1.1,3.43s2.45-1.25,2.79-2.22l.91-2.68c.63-1.9,1.44-4.43,2.34-7.25a1.73,1.73,0,0,1,.79-1l4.15-2.3a1.72,1.72,0,0,1,2.55,1.5v4a1.71,1.71,0,0,1-.46,1.17c-2.16,2.31-4.1,4.41-5.54,6l-1.9,2.12c-.67.77-1.92,2.2-.54,3.52s2.83-.05,3.53-.75l2-2,0,0a1.7,1.7,0,0,1,2.93,1.17v1.08a1.76,1.76,0,0,1-.46,1.17c-1.27,1.36-2.39,2.6-3.24,3.54-1.9,2.13-2.95,3.3-1.49,4.66s2.56.25,4.56-1.79c.2-.22.43-.45.66-.69,0,2.28,0,4.21,0,5.74,0,1.28,0,2.28,0,3,0,1,.06,3,2,3s2-1.93,2-3c0-.68,0-1.68,0-3,0-1.68,0-3.85,0-6.42l1,.84c2.14,1.79,3.32,2.77,4.66,1.27s.16-2.54-1.9-4.43c-.83-.76-1.92-1.73-3.14-2.81a1.7,1.7,0,0,1-.58-1.29V346a1.71,1.71,0,0,1,2.89-1.24l.06.05,2.08,1.93c.71.65,2.2,2,3.5.6s0-2.83-.68-3.54l-2-2c-1.39-1.39-3.24-3.2-5.32-5.22a1.74,1.74,0,0,1-.52-1.23c0-1.41,0-2.85,0-4.31a1.71,1.71,0,0,1,2.57-1.48l3.62,2.09a1.69,1.69,0,0,1,.77.95c1,3,1.86,5.67,2.54,7.69L445,343c.34,1,1,2.76,2.86,2.17s1.3-2.44,1-3.45L448,339c-.34-1.09-.74-2.38-1.2-3.81l4.23,2.44a1.69,1.69,0,0,1,.77.95c.63,1.91,1.2,3.62,1.65,4.9.95,2.71,1.47,4.2,3.35,3.56s1.47-2.12.64-4.86l-.32-1.05c5.07,2.91,7.6,4.34,9,5l.26.16,0,0c1.08.51,1.3.45,1.67.35A2,2,0,0,0,469.44,344.23Z" style="fill:#f5f5f5"></path><path d="M421.9,108.5c-.08-.31-.12-.49-.93-1.06v0l-.21-.11c-1.08-.72-3.24-2-7.72-4.63l.87-.33c2.17-.84,3.36-1.3,2.8-2.85s-1.84-1.13-4-.41l-3.05,1a1.4,1.4,0,0,1-1.18-.1l-1.14-.67a1.42,1.42,0,0,1,.29-2.59l.32-.1,2.24-.73c.75-.26,2.32-.79,1.82-2.34s-2-1.11-2.83-.88l-2.25.63c-1.57.46-3.65,1.07-6,1.77a1.44,1.44,0,0,1-1.13-.12l-2.78-1.62a1.42,1.42,0,0,1,0-2.47l4-2.24a1.45,1.45,0,0,1,1.08-.12c2.19.61,4.16,1.16,5.68,1.56l2.29.6c.78.19,2.39.59,2.81-1s-1.09-2-1.91-2.26l-2.25-.69L406,86l4.6-2.59a1.41,1.41,0,0,1,1.08-.13c1.29.36,2.46.67,3.37.91,2.28.58,3.53.91,4-.67s-.78-2-3-2.68l-.56-.16,2.76-1.58c2.87-1.64,3.64-2.08,2.85-3.51a1.63,1.63,0,0,0-1-.78c-.32-.09-.5-.14-1.39.26h0l-.11.07c-.9.42-2.48,1.28-5.48,2.93l.3-1.3c.51-2.26.79-3.51-.83-3.91s-1.93.84-2.54,3.08c-.27,1-.62,2.35-1,3.86a1.41,1.41,0,0,1-.68.9l-1.67.92a1.42,1.42,0,0,1-2.06-1.64c.05-.16.09-.32.14-.48l.63-2.25c.21-.77.63-2.37-.89-2.81s-2.08,1.07-2.35,1.85l-.72,2.22c-.55,1.74-1.28,4.1-2.07,6.72a1.45,1.45,0,0,1-.67.83l-3.54,2A1.42,1.42,0,0,1,393,86.73V83.17a1.43,1.43,0,0,1,.41-1c1.78-1.79,3.37-3.41,4.56-4.65l1.63-1.7c.58-.63,1.66-1.78.5-2.94s-2.28,0-2.91.57l-1.69,1.63-.1.11a1.43,1.43,0,0,1-2.42-1c0-.65,0-1.28,0-1.9a1.4,1.4,0,0,1,.42-1c1.1-1.12,2.08-2.13,2.82-2.91,1.62-1.7,2.51-2.64,1.34-3.82s-2.11-.26-3.8,1.38c-.25.23-.52.49-.8.78,0-1.83,0-3.38,0-4.61,0-1,0-1.81,0-2.35,0-.85,0-2.42-1.66-2.42s-1.64,1.57-1.66,2.41c0,.53,0,1.31,0,2.31,0,1.25,0,2.84,0,4.71l-.58-.52c-1.69-1.5-2.71-2.41-3.82-1.19s-.16,2.16,1.45,3.72c.66.65,1.51,1.46,2.48,2.37a1.4,1.4,0,0,1,.45,1c0,1.66,0,3.45,0,5.33L387.1,75.1l-1.67-1.65c-.61-.59-1.75-1.68-2.92-.55s-.07,2.28.51,2.92l1.59,1.71c1.16,1.22,2.7,2.84,4.43,4.63a1.41,1.41,0,0,1,.41,1c0,1.09,0,2.2,0,3.34a1.42,1.42,0,0,1-2.13,1.23l-3-1.76a1.39,1.39,0,0,1-.68-.94c-.54-2.65-1-5-1.43-6.79l-.51-2.3c-.2-.83-.58-2.38-2.15-2.05s-1.3,1.89-1.16,2.74l.43,2.32c.07.39.15.82.24,1.27a1.43,1.43,0,0,1-2.11,1.5l-1.86-1.07a1.39,1.39,0,0,1-.67-.94c-.29-1.39-.56-2.63-.78-3.59-.52-2.3-.81-3.58-2.42-3.24s-1.41,1.61-1,3.94c.06.35.14.75.22,1.17l-4.61-2.63-2.14-1.21c-.76-.41-2.15-1.19-3,.21s.51,2.2,1.3,2.68l2.14,1.28,4.29,2.52-.67.18c-2.17.57-3.49.91-3.11,2.48a1.64,1.64,0,0,0,.71,1c.64.42,1,.34,3.2-.14,1-.21,2.28-.5,3.72-.84a1.45,1.45,0,0,1,1,.15l3.09,1.8-2.29.45-2.29.48c-.78.17-2.41.52-2.09,2.06s1.91,1.38,2.72,1.25l2.3-.38c1.55-.26,3.57-.62,5.82-1a1.43,1.43,0,0,1,1,.17l4,2.34a1.42,1.42,0,0,1,0,2.47l-3.18,1.78a1.38,1.38,0,0,1-1.09.12c-2.46-.72-4.67-1.36-6.35-1.83l-2.27-.62c-.78-.21-2.41-.63-2.8.88s1.08,2.1,1.86,2.36l2.24.71.4.13a1.42,1.42,0,0,1,.28,2.59l-1.22.69h0c-1.88-.55-3.59-1-4.83-1.37-2.28-.62-3.54-1-4,.63s.78,2,3,2.7l1.55.48c-3.85,2.17-5.77,3.27-6.75,3.91l-.18.09v0c-.82.55-.87.74-1,1a1.63,1.63,0,0,0,1.11,2c.32.09.5.15,1.4-.26v0l.15-.09c1-.48,2.8-1.45,6.28-3.38l-.06.28c-.52,2.19-.84,3.51.76,3.92s2-.88,2.59-3c.23-.79.5-1.79.8-2.91a1.39,1.39,0,0,1,.68-.87l3.92-2.18c-.35,1.13-.66,2.14-.92,3l-.66,2.25c-.23.81-.65,2.32.91,2.84s2-1,2.31-1.84l.75-2.22c.52-1.57,1.2-3.66,1.94-6a1.4,1.4,0,0,1,.66-.81l3.43-1.92a1.42,1.42,0,0,1,2.11,1.25c0,1.13,0,2.25,0,3.34a1.4,1.4,0,0,1-.39,1c-1.79,1.92-3.39,3.65-4.58,5l-1.58,1.76c-.55.63-1.59,1.81-.45,2.91s2.35,0,2.93-.62l1.64-1.68,0,0a1.42,1.42,0,0,1,2.43,1v.89a1.42,1.42,0,0,1-.38,1c-1,1.13-2,2.15-2.68,2.94-1.58,1.76-2.44,2.73-1.24,3.85s2.12.21,3.77-1.48l.55-.57c0,1.88,0,3.49,0,4.75,0,1.06,0,1.88,0,2.45,0,.85.05,2.44,1.66,2.44s1.65-1.59,1.67-2.45c0-.56,0-1.39,0-2.45,0-1.4,0-3.19,0-5.32l.82.69c1.78,1.49,2.75,2.3,3.86,1.06s.14-2.11-1.57-3.67c-.69-.63-1.59-1.43-2.6-2.33a1.4,1.4,0,0,1-.49-1.06c0-.31,0-.63,0-1a1.42,1.42,0,0,1,2.39-1l.05,0,1.72,1.6c.59.53,1.82,1.65,2.9.49s0-2.34-.57-2.93l-1.64-1.66c-1.15-1.15-2.68-2.66-4.4-4.33a1.36,1.36,0,0,1-.43-1V97.59a1.42,1.42,0,0,1,2.13-1.23l3,1.73a1.45,1.45,0,0,1,.63.79c.81,2.48,1.54,4.7,2.11,6.36l.77,2.24c.29.79.82,2.28,2.37,1.79s1.08-2,.84-2.85l-.68-2.26-1-3.15,3.5,2a1.36,1.36,0,0,1,.64.79c.52,1.58,1,3,1.36,4.05.79,2.24,1.22,3.48,2.77,2.95s1.22-1.76.53-4l-.26-.87c4.2,2.42,6.29,3.6,7.42,4.16l.22.13v0c.9.42,1.08.37,1.39.29A1.62,1.62,0,0,0,421.9,108.5Z" style="fill:#f5f5f5"></path><ellipse cx="281" cy="439.67" rx="131.26" ry="34.65" style="fill:#ebebeb"></ellipse><ellipse cx="196.63" cy="463.48" rx="79.21" ry="21.55" style="fill:#ebebeb"></ellipse></g><g id="freepik--Floor--inject-431"><path d="M457.9,416.6c0,.14-93.11.26-207.94.26S42,416.74,42,416.6s93.08-.26,208-.26S457.9,416.45,457.9,416.6Z" style="fill:#263238"></path></g><g id="freepik--speech-bubble--inject-431"><path d="M133,141.62l-1.9-12.21a49.9,49.9,0,1,0-10.75,14.27v0Z" style="fill:#fff"></path><path d="M133,141.62l-.81.15-2.42.43-9.42,1.61-.22,0,.12-.19,0,0,.15.13a51.18,51.18,0,0,1-8.49,6.36,49.81,49.81,0,0,1-61.89-9,51.91,51.91,0,0,1-6.47-8.52c-.47-.78-.87-1.6-1.31-2.41A27.12,27.12,0,0,1,41,127.73a46.16,46.16,0,0,1-2-5.22c-.27-.9-.58-1.8-.83-2.71s-.4-1.86-.61-2.79l-.3-1.41c-.09-.47-.14-.95-.21-1.42-.14-1-.26-1.91-.32-2.88A49.88,49.88,0,0,1,88,57.14a48.54,48.54,0,0,1,21.09,5.38A51.41,51.41,0,0,1,124.8,75a49.72,49.72,0,0,1,9,15.74c.41,1.37.81,2.71,1.2,4s.55,2.68.82,4a47.46,47.46,0,0,1,.7,7.62,49.41,49.41,0,0,1-5.33,23.09v-.06c.59,4,1,7,1.35,9.1.15,1,.27,1.8.34,2.34s.11.79.11.79-.06-.28-.15-.81l-.39-2.36c-.34-2.07-.83-5.11-1.46-9v0l0,0a50.91,50.91,0,0,0,3.65-9.82,49.32,49.32,0,0,0,1.53-13.17,46.89,46.89,0,0,0-.73-7.57c-.27-1.29-.51-2.61-.82-4s-.8-2.64-1.21-4a49.1,49.1,0,0,0-8.94-15.59,51.31,51.31,0,0,0-15.63-12.34,48.14,48.14,0,0,0-20.9-5.29A49.2,49.2,0,0,0,65.47,62.3a49.49,49.49,0,0,0-28.25,49c.06.95.18,1.9.32,2.85.07.47.12.94.21,1.41l.3,1.39c.2.92.39,1.84.59,2.76s.56,1.79.83,2.68a45.38,45.38,0,0,0,2,5.18A24.14,24.14,0,0,0,42.67,130c.44.8.83,1.62,1.29,2.39a51.17,51.17,0,0,0,22.49,20,49.5,49.5,0,0,0,45.32-2.48,52,52,0,0,0,8.49-6.28l.58-.53-.42.66,0,0-.1-.16,9.37-1.48,2.46-.38C132.68,141.65,133,141.62,133,141.62Z" style="fill:#263238"></path><path d="M111.74,120.69c-.06-.25-.1-.4-.77-.87v0l-.17-.09c-.88-.59-2.66-1.64-6.33-3.79l.72-.27c1.78-.69,2.75-1.07,2.3-2.34s-1.52-.93-3.27-.34l-2.49.86a1.16,1.16,0,0,1-1-.08l-.93-.55a1.17,1.17,0,0,1,.23-2.12l.27-.08,1.83-.6c.62-.21,1.91-.65,1.5-1.92s-1.63-.91-2.32-.73l-1.84.52c-1.3.38-3,.88-4.9,1.46a1.18,1.18,0,0,1-.92-.11L91.4,108.3a1.17,1.17,0,0,1,0-2l3.28-1.83a1.17,1.17,0,0,1,.88-.11c1.8.51,3.42,1,4.66,1.29l1.88.49c.64.15,2,.48,2.3-.82s-.89-1.64-1.56-1.85l-1.85-.57-2.32-.68,3.78-2.12a1.17,1.17,0,0,1,.88-.11c1.06.3,2,.55,2.76.75,1.87.48,2.9.74,3.27-.55s-.64-1.63-2.5-2.2l-.45-.13,2.26-1.29c2.35-1.35,3-1.71,2.34-2.88a1.38,1.38,0,0,0-.8-.64c-.27-.08-.42-.12-1.15.21h0l-.09,0c-.75.35-2,1.06-4.5,2.41.09-.39.17-.74.24-1.06.42-1.86.65-2.88-.67-3.21s-1.59.69-2.09,2.52c-.22.83-.51,1.93-.82,3.17a1.2,1.2,0,0,1-.56.74l-1.37.76a1.17,1.17,0,0,1-1.69-1.35l.12-.4L98.17,95c.16-.63.52-1.94-.74-2.3s-1.7.88-1.92,1.52L94.92,96c-.45,1.43-1,3.36-1.7,5.51a1.18,1.18,0,0,1-.55.69l-2.9,1.61a1.17,1.17,0,0,1-1.74-1V99.91a1.21,1.21,0,0,1,.34-.82c1.46-1.47,2.76-2.8,3.74-3.81l1.34-1.4c.47-.51,1.36-1.46.41-2.41s-1.87,0-2.39.47l-1.38,1.34-.09.08a1.16,1.16,0,0,1-2-.83c0-.53,0-1,0-1.56a1.19,1.19,0,0,1,.34-.82c.91-.91,1.71-1.75,2.32-2.38,1.32-1.4,2.06-2.17,1.1-3.14s-1.74-.21-3.12,1.13L88,86.4c0-1.5,0-2.77,0-3.78,0-.83,0-1.48,0-1.93,0-.69,0-2-1.36-2s-1.35,1.28-1.37,2c0,.44,0,1.08,0,1.91,0,1,0,2.32,0,3.86L84.68,86c-1.38-1.23-2.22-2-3.14-1s-.12,1.76,1.2,3c.54.52,1.24,1.19,2,1.93a1.17,1.17,0,0,1,.37.85c0,1.37,0,2.83,0,4.38-.73-.74-1.38-1.41-1.94-2l-1.37-1.36c-.5-.48-1.43-1.38-2.39-.45s-.06,1.87.42,2.39l1.3,1.41c.95,1,2.22,2.32,3.64,3.79a1.18,1.18,0,0,1,.33.81v2.74a1.17,1.17,0,0,1-1.75,1l-2.49-1.44a1.16,1.16,0,0,1-.56-.77c-.44-2.17-.85-4.12-1.16-5.57L78.73,94c-.16-.69-.47-2-1.76-1.69s-1.07,1.55-1,2.25l.35,1.9c.06.32.13.67.2,1a1.18,1.18,0,0,1-1.74,1.23l-1.52-.88a1.17,1.17,0,0,1-.55-.77c-.24-1.14-.46-2.16-.64-2.94-.43-1.9-.66-2.94-2-2.66s-1.15,1.31-.8,3.23q.09.43.18,1L65.73,93.5c-.76-.43-1.35-.77-1.76-1-.61-.34-1.76-1-2.42.17s.42,1.8,1.06,2.2l1.76,1c.93.56,2.12,1.26,3.52,2.08l-.55.14c-1.78.47-2.86.75-2.55,2a1.39,1.39,0,0,0,.58.84c.53.34.81.28,2.63-.11l3-.69a1.15,1.15,0,0,1,.85.12l2.53,1.48-1.87.37-1.88.39c-.65.14-2,.43-1.72,1.68s1.57,1.14,2.23,1l1.9-.31c1.26-.22,2.92-.51,4.77-.85a1.15,1.15,0,0,1,.79.14L82,106.2a1.16,1.16,0,0,1,0,2l-2.61,1.47a1.15,1.15,0,0,1-.89.09l-5.21-1.5-1.87-.51c-.64-.17-2-.51-2.29.73s.88,1.72,1.52,1.93l1.84.58.33.11a1.17,1.17,0,0,1,.23,2.13l-1,.56h0c-1.55-.45-2.95-.85-4-1.13-1.87-.5-2.9-.78-3.28.52s.64,1.63,2.48,2.21l1.27.4c-3.15,1.78-4.73,2.68-5.53,3.21l-.15.07v0c-.67.45-.71.6-.78.86a1.33,1.33,0,0,0,.91,1.63c.26.08.41.12,1.15-.21v0s0,0,.12-.08c.82-.39,2.29-1.19,5.15-2.77,0,.08,0,.16,0,.23-.43,1.79-.68,2.88.63,3.21s1.62-.72,2.12-2.49c.19-.66.41-1.47.66-2.39a1.12,1.12,0,0,1,.55-.72l3.21-1.78c-.28.92-.53,1.75-.75,2.46l-.54,1.85c-.18.66-.53,1.9.75,2.33s1.66-.85,1.9-1.51l.61-1.82c.43-1.29,1-3,1.59-4.92a1.13,1.13,0,0,1,.54-.67l2.82-1.57a1.17,1.17,0,0,1,1.73,1v2.74a1.14,1.14,0,0,1-.32.8c-1.46,1.57-2.78,3-3.75,4.07l-1.3,1.44c-.45.52-1.3,1.49-.37,2.39s1.93,0,2.41-.51l1.34-1.38,0,0a1.16,1.16,0,0,1,2,.8v.73a1.17,1.17,0,0,1-.31.79c-.86.93-1.63,1.76-2.2,2.41-1.29,1.44-2,2.24-1,3.16s1.75.17,3.1-1.22l.45-.46c0,1.54,0,2.85,0,3.89,0,.87,0,1.55,0,2,0,.7,0,2,1.37,2s1.35-1.31,1.36-2c0-.46,0-1.14,0-2,0-1.14,0-2.62,0-4.36l.67.57c1.45,1.21,2.26,1.88,3.17.86s.1-1.72-1.3-3c-.56-.52-1.3-1.18-2.13-1.92a1.15,1.15,0,0,1-.4-.87v-.78a1.16,1.16,0,0,1,2-.84l0,0,1.41,1.31c.49.44,1.5,1.36,2.38.41s0-1.93-.46-2.41L92,119.05c-1-.94-2.2-2.18-3.61-3.55a1.16,1.16,0,0,1-.36-.84v-2.92a1.17,1.17,0,0,1,1.75-1l2.46,1.42a1.19,1.19,0,0,1,.52.65c.66,2,1.27,3.85,1.73,5.22l.63,1.83c.24.65.67,1.87,1.95,1.47s.88-1.66.68-2.34l-.55-1.85c-.23-.74-.51-1.61-.82-2.58l2.88,1.65a1.16,1.16,0,0,1,.52.65c.42,1.3.82,2.46,1.12,3.32.64,1.84,1,2.85,2.27,2.42s1-1.44.44-3.3l-.22-.71c3.45,2,5.16,3,6.09,3.41l.17.11,0,0c.73.34.88.3,1.14.23A1.33,1.33,0,0,0,111.74,120.69Z" style="fill:#FF725E"></path></g><g id="freepik--Penguin--inject-431"><path d="M278.18,95.16S169.82,82.78,157.9,190.78c-6.26,56.75,5.08,36.41-23.12,137C110,416,160.65,463.48,216.19,463.48h67.44Z" style="fill:#263238"></path><path d="M255.81,95.11s105-12.33,116.9,95.67c6.26,56.75-4.12,33.82,21.46,135.1,23.07,91.38-25.34,128-83.16,137.6H247Z" style="fill:#263238"></path><path d="M270.88,207.88s.52-59.06-28.44-66.71c-36.46-9.64-78.86,6.16-59,80.16s37.32,67.83,34.92,90.26-43.94,63.9-16.86,114.92c0,0,18.06,28.35,63.29,23.65Z" style="fill:#fafafa"></path><path d="M249.77,207.88s-.52-59.06,28.44-66.71c36.46-9.64,78.86,6.16,59,80.16s-37.32,67.83-34.91,90.26,43.94,63.9,16.86,114.92c0,0-28.17,26.9-72.17,24.1Z" style="fill:#fafafa"></path><path d="M181.86,312.19a92,92,0,0,1-71.07,42.11c-7.64.46-15.56-.1-22.46-3.42s-12.62-9.8-13.42-17.41c-.73-7,2.7-13.86,7.49-19s10.87-8.83,16.72-12.71c17.1-11.34,40.83-29.39,55-44.25" style="fill:#263238"></path><path d="M284.69,419.46c1.82-4.06,6-7.28,10.46-6.77,3.16.37,6,2.54,9.22,2.3,3.61-.26,6.23-3.46,9.48-5.05a11.61,11.61,0,0,1,15.06,5.48c.92,2.07,1.39,4.63,3.37,5.73,2.75,1.53,5.94-.94,9-1.57,4.62-.93,9.23,2.7,10.83,7.14s.84,9.35-.39,13.9c-2.25,8.28-6.19,16.3-12.55,22.07s-18.72,8.29-27.2,7c-23.73-3.59-25.1-20.18-28.15-37.15C283.05,428.18,282.88,423.51,284.69,419.46Z" style="fill:#FF725E"></path><path d="M177,426.74c1.6-4.44,6.22-8.08,10.84-7.14,3.09.63,6.28,3.1,9,1.57,2-1.1,2.45-3.67,3.37-5.74A11.61,11.61,0,0,1,215.36,410c3.26,1.58,5.88,4.79,9.5,5.05,3.19.24,6.07-1.93,9.24-2.3,4.42-.52,8.65,2.71,10.47,6.77s1.64,8.74.86,13.12c-3.06,17-12.3,31.59-29.23,36.62l-2.46.65c-8.38,1.9-17.39-1.32-23.76-7.09s-10.3-13.81-12.56-22.1C176.18,436.11,175.43,431.18,177,426.74Z" style="fill:#FF725E"></path><path d="M268.46,69.32c-1.38-3.68-4.11-7.64-8-7.54-3.17.08-5.69,3-6.4,6.09s-.05,6.31.62,9.41c-2.36-1.74-4.87-3.55-7.78-3.93s-6.32,1.25-6.83,4.14c-.34,1.93.63,3.82,1.57,5.54L252,102l16-4.1A39.27,39.27,0,0,0,268.46,69.32Z" style="fill:#263238"></path><circle cx="295.48" cy="188.69" r="15.53" transform="translate(8.86 390.59) rotate(-67.72)" style="fill:#263238"></circle><circle cx="224.63" cy="191.68" r="15.53" style="fill:#263238"></circle><path d="M281.65,207.19l.68,3.62a24,24,0,0,1-42.37.11Z" style="fill:#FF725E"></path><path d="M283.63,211.58c-1.74-7.85-9.29-12.49-17.29-13.26s-16,2.52-22.4,7.35c-2.66,2-5.64,4-4.44,7.13.89,2.28,8.79,5.78,11.17,6.36,11.77,2.88,25.9-.19,33-7.58" style="fill:#FF725E"></path><path d="M236.89,207.21c.05,0,.32.76,1,2.07a17.18,17.18,0,0,0,3.75,4.88,21.84,21.84,0,0,0,8,4.42,28.79,28.79,0,0,0,5.29,1.15,33.84,33.84,0,0,0,5.82.25,38.85,38.85,0,0,0,19.38-5.9,27.27,27.27,0,0,0,4.82-3.9c1-1.05,1.53-1.69,1.57-1.65a2.23,2.23,0,0,1-.34.48,13.74,13.74,0,0,1-1.08,1.31,25.6,25.6,0,0,1-4.77,4.07,38.1,38.1,0,0,1-19.56,6.11,33.7,33.7,0,0,1-5.9-.27,28,28,0,0,1-5.38-1.2,21.42,21.42,0,0,1-8.06-4.6,16.29,16.29,0,0,1-3.69-5.06,12.63,12.63,0,0,1-.63-1.59A2.1,2.1,0,0,1,236.89,207.21Z" style="fill:#263238"></path><path d="M288.37,160a2.42,2.42,0,0,1,0-2.34,5,5,0,0,1,.91-1.5,8.63,8.63,0,0,1,1.58-1.55,11.86,11.86,0,0,1,2.23-1.43,16.53,16.53,0,0,1,2.83-1.13,19.23,19.23,0,0,1,13.59,1.09,16.38,16.38,0,0,1,2.61,1.56,12.35,12.35,0,0,1,2,1.77,8.81,8.81,0,0,1,1.31,1.78,5.32,5.32,0,0,1,.66,1.63,2.41,2.41,0,0,1-.41,2.3c-1,1.07-3,.92-5.33.61l-3.87-.56c-1.41-.17-2.9-.36-4.48-.5s-3.08-.16-4.49-.22l-3.92-.06C291.18,161.35,289.21,161.18,288.37,160Z" style="fill:#263238"></path><path d="M206.55,165.58a2.43,2.43,0,0,1-1-2.12,5.54,5.54,0,0,1,.22-1.74,8.83,8.83,0,0,1,.82-2.06,11.69,11.69,0,0,1,1.45-2.22,16,16,0,0,1,2.12-2.18,19.74,19.74,0,0,1,6-3.46,20,20,0,0,1,6.85-1.1,16.52,16.52,0,0,1,3,.37,12.32,12.32,0,0,1,2.53.8,9,9,0,0,1,1.93,1.09,5.31,5.31,0,0,1,1.27,1.22,2.4,2.4,0,0,1,.56,2.27c-.49,1.39-2.35,2.05-4.62,2.74l-3.76,1.06c-1.36.42-2.79.85-4.29,1.37s-2.88,1.11-4.19,1.64l-3.6,1.54C209.67,165.7,207.8,166.35,206.55,165.58Z" style="fill:#263238"></path><path d="M284.89,207.45a2.6,2.6,0,0,1,2.26.81c1.07.93,1.25,2.13,1.11,2.13s-.51-.93-1.45-1.74S284.86,207.6,284.89,207.45Z" style="fill:#263238"></path><path d="M235.85,208.45c-.06,0-.06-.24.13-.53a1.88,1.88,0,0,1,1.09-.72,1.8,1.8,0,0,1,1.3.16c.3.17.4.36.36.41s-.72-.28-1.54-.06S236,208.51,235.85,208.45Z" style="fill:#263238"></path><path d="M282.6,115.23a1.07,1.07,0,0,1,0,.29c0,.19,0,.47-.05.84a15.07,15.07,0,0,1-.72,3.16,15.92,15.92,0,0,1-2.4,4.53,15.57,15.57,0,0,1-5.15,4.43,16.14,16.14,0,0,1-16.91-1.27,9.43,9.43,0,0,1-3.24-4,6.1,6.1,0,0,1,.37-5.34,4.75,4.75,0,0,1,2.18-1.83,6.12,6.12,0,0,1,2.84-.43,7.9,7.9,0,0,1,5.14,2.5,9.83,9.83,0,0,1,2.57,5.14,9.54,9.54,0,0,1-4.4,9.54,11,11,0,0,1-4.92,1.54,16.49,16.49,0,0,1-9.18-2.13,16.12,16.12,0,0,1-6-5.64A14.35,14.35,0,0,1,241.21,115a12.54,12.54,0,0,1,1.31-3c.18-.32.37-.54.47-.7s.17-.23.18-.22A15.27,15.27,0,0,0,241.4,115a14.52,14.52,0,0,0-.44,5,14.15,14.15,0,0,0,2.11,6.28,16,16,0,0,0,5.87,5.47,16.12,16.12,0,0,0,8.93,2,10.43,10.43,0,0,0,4.7-1.49,9,9,0,0,0,4.15-9,9.33,9.33,0,0,0-2.43-4.86,7.38,7.38,0,0,0-4.81-2.34,4.75,4.75,0,0,0-4.54,2,5.58,5.58,0,0,0-.34,4.89,8.91,8.91,0,0,0,3.06,3.82,15.38,15.38,0,0,0,8.62,3,15.56,15.56,0,0,0,7.83-1.68,15.76,15.76,0,0,0,5.09-4.28,16.67,16.67,0,0,0,2.44-4.42,16.87,16.87,0,0,0,.8-3.11c.05-.34.08-.62.11-.83A1,1,0,0,1,282.6,115.23Z" style="fill:#455a64"></path><path d="M249.55,329.19c4.79-5.12,10.86-8.83,16.71-12.71,17.11-11.34,40.16-30.09,54.31-45l37.52,55c-20.36,22.12-51.61,40.75-80.15,42.49-7.64.46-15.56-.1-22.46-3.42s-12.63-9.8-13.42-17.41C241.32,341.2,244.76,334.32,249.55,329.19Z" style="fill:#263238"></path><path d="M367.59,318.71a3.23,3.23,0,0,1-.46.6L365.71,321c-.61.72-1.38,1.59-2.3,2.56s-1.94,2.12-3.14,3.31c-2.36,2.42-5.28,5.2-8.63,8.16s-7.18,6.05-11.33,9.11-8.29,5.73-12.11,8-7.37,4.24-10.39,5.75c-1.5.79-2.89,1.42-4.1,2s-2.27,1.05-3.14,1.42l-2,.85a3.68,3.68,0,0,1-.71.26,4.44,4.44,0,0,1,.67-.36l2-.94c.85-.39,1.9-.89,3.09-1.49s2.58-1.26,4.06-2.07c3-1.55,6.5-3.52,10.31-5.83s7.89-5,12.05-8.06,7.95-6.14,11.33-9.05,6.29-5.68,8.67-8.06c1.22-1.17,2.26-2.29,3.2-3.25s1.72-1.8,2.36-2.49l1.49-1.59A4.41,4.41,0,0,1,367.59,318.71Z" style="fill:#455a64"></path><path d="M348.61,262a10.24,10.24,0,0,1-1.48-.21,31,31,0,0,0-4-.38,28.73,28.73,0,0,0-23.32,10.63,33.78,33.78,0,0,0-2.35,3.27,8.06,8.06,0,0,1-.81,1.25,7.73,7.73,0,0,1,.64-1.35,23.72,23.72,0,0,1,2.24-3.4,27.79,27.79,0,0,1,23.61-10.77,25.41,25.41,0,0,1,4,.55A6.87,6.87,0,0,1,348.61,262Z" style="fill:#455a64"></path></g><g id="freepik--Slush--inject-431"><path d="M97.47,319.08l69.1,157.55a7.31,7.31,0,0,0,7.18,4.35,196.15,196.15,0,0,0,83-24.85,7.31,7.31,0,0,0,3.64-7.64l-29.78-169.1Z" style="fill:#FF725E"></path><path d="M97.47,319.08l2.4-.74,7.07-2.13,26.94-8.09,96.63-28.95.24-.07,0,.25c7.76,44,17,96.46,26.92,152.69q1.32,7.48,2.63,14.9c.1.62.23,1.22.31,1.86a7.41,7.41,0,0,1,0,1.94,7.57,7.57,0,0,1-1.45,3.54,8,8,0,0,1-2.95,2.39L253,458.44a206.21,206.21,0,0,1-26.7,11.83,194.46,194.46,0,0,1-27.16,7.55l-3.38.66-3.38.57c-2.24.4-4.5.68-6.73,1a117.83,117.83,0,0,1-13.35,1.13,7.54,7.54,0,0,1-5.47-3.58c-.57-1-.92-2-1.38-3l-1.29-3L159.05,460q-5-11.46-9.73-22.23c-6.28-14.34-12.12-27.69-17.45-39.89-10.65-24.36-19.26-44.08-25.22-57.72-3-6.8-5.27-12.08-6.83-15.67-.78-1.78-1.37-3.14-1.77-4.07s-.58-1.38-.58-1.38l.63,1.4,1.81,4.09,6.93,15.7,25.39,57.66,17.51,39.79,9.74,22.17,5.09,11.59c.43,1,.86,2,1.3,2.95s.83,2,1.35,2.91a7,7,0,0,0,5.13,3.35,15.42,15.42,0,0,0,3.24-.11l3.32-.27c2.21-.24,4.43-.46,6.66-.75s4.47-.59,6.71-1l3.37-.57,3.38-.66a193.76,193.76,0,0,0,27.08-7.54A206.58,206.58,0,0,0,252.74,458l3.26-1.76a7.5,7.5,0,0,0,2.79-2.25,7.11,7.11,0,0,0,1.35-3.3,11.62,11.62,0,0,0-.31-3.64q-1.31-7.41-2.63-14.9c-9.88-56.24-19.11-108.72-26.84-152.71l.28.18-96.56,28.67-27,8-7.13,2.1C98.32,318.85,97.47,319.08,97.47,319.08Z" style="fill:#263238"></path><path d="M230.49,279.12c1.29,4.29-27.76,19.37-63,29.91s-68.77,14.35-70.05,10.05,30.2-15.07,65.4-25.61S229.21,274.82,230.49,279.12Z" style="fill:#FF725E"></path><path d="M166.81,282.43l-14.48,4.33-14.9-47.85a29.12,29.12,0,0,0,14.49-4.34Z" style="fill:#FF725E"></path><path d="M224.71,259.56l-.36,0h-5.12l-2.94,0c-1.08,0-2.24.08-3.5.11-2.5.1-5.36.13-8.5.41l-4.94.37c-1.72.14-3.5.38-5.34.58-3.7.36-7.61,1-11.73,1.65a249.31,249.31,0,0,0-26.42,6.16,251,251,0,0,0-25.5,9.27c-3.81,1.71-7.45,3.28-10.75,5-1.66.83-3.29,1.59-4.81,2.4l-4.35,2.36c-2.81,1.45-5.23,3-7.4,4.23l-3,1.78-2.47,1.58-3.44,2.17-.9.56a1.33,1.33,0,0,1-.32.17l.29-.22.87-.59,3.39-2.26,2.45-1.62c.91-.58,1.92-1.17,3-1.82,2.16-1.29,4.57-2.82,7.37-4.3,1.38-.77,2.84-1.56,4.35-2.39s3.14-1.59,4.8-2.44c3.3-1.71,6.94-3.3,10.75-5a245.12,245.12,0,0,1,25.54-9.33,239.89,239.89,0,0,1,26.49-6.13c4.14-.62,8.06-1.27,11.76-1.61,1.85-.19,3.63-.42,5.35-.55l4.95-.33c3.15-.27,6-.26,8.53-.34,1.25,0,2.42-.06,3.5-.06l2.94.06,4.07.11,1,0Z" style="fill:#263238"></path><path d="M105.49,318.42s-3.92-6.12-3.51-7.87,3.08-10.63,3.08-10.63l8.58-4.7,4.42.81,5.29-6.13-.67-5.6,4-16.2L150,256l25.48,7.68,2.81,6.15,16-2.53,11,1,2.49,8.31,14-2.1,6.27,7.28" style="fill:#FF725E"></path><g style="opacity:0.30000000000000004"><path d="M223.72,259s-13.77-51-78.2-38.49l-8.66,2.59C76.15,248,92.67,298.23,92.67,298.23a55,55,0,0,0-3.75,20.1c26.51,4,59.06-3.07,74.34-7.06l0,.14s1.58-.44,4.32-1.32,4.33-1.27,4.33-1.27l0-.14c15-5.06,46-17,66-34.95A55.18,55.18,0,0,0,223.72,259Z" style="fill:#fff"></path></g><path d="M114.22,295.91a28,28,0,0,1-3.84,2.41,27.85,27.85,0,0,1-4,2.21,16,16,0,0,1,3.69-2.66A15.81,15.81,0,0,1,114.22,295.91Z" style="fill:#fff"></path><path d="M154.76,157.76c3,1.83,4.79,4.37,4,5.66s-3.87.86-6.87-1-4.78-4.36-4-5.65S151.76,155.93,154.76,157.76Z" style="fill:#FF725E"></path><path d="M105.26,310s2.65-9.66,2.91-9.74,7.59,1,7.59,1l2.12,7.1L113.41,311Z" style="fill:#fff;opacity:0.5"></path><path d="M119.86,295.49l.71,2.36s6.52.23,6.47,0,3.31-6.2,3.31-6.2l-5.2-2.33Z" style="fill:#fff;opacity:0.5"></path><path d="M156.72,282l.7,2.36s6.53.23,6.47,0,3.32-6.2,3.32-6.2L162,275.86Z" style="fill:#fff;opacity:0.5"></path><path d="M125.83,283.36c.32.17,5.82,0,5.82,0l5.07-2.81s4.38-9.72,4-9.7a53.78,53.78,0,0,1-4.82-3.45l-6.72,1Z" style="fill:#fff;opacity:0.5"></path><polygon points="143.84 272.63 142.15 277.72 145.52 281.89 151.46 280.12 153.17 274.72 149.79 270.84 143.84 272.63" style="fill:#fff;opacity:0.5"></polygon><polygon points="174.71 273.41 173.02 278.51 176.4 282.68 182.33 280.9 184.04 275.5 180.66 271.63 174.71 273.41" style="fill:#fff;opacity:0.5"></polygon><path d="M140,283.54l-1.57,1.84,2,3.19,2.73-1.55s1.83.28,1.19-1.84l-.63-2.12Z" style="fill:#fff;opacity:0.5"></path><path d="M149.2,294.17,147.62,296l2,3.19,2.74-1.55s1.82.28,1.19-1.84l-.64-2.12Z" style="fill:#fff;opacity:0.5"></path><polygon points="130.43 298.72 132.42 293.01 143.18 293.07 145.32 300.23 142.44 305.06 137.19 308.94 130.43 307.02 128.44 300.35 130.43 298.72" style="fill:#fff;opacity:0.5"></polygon><polygon points="158.75 272.04 159.73 268.87 163.49 267.75 167.54 269.87 168.47 274.02 162.6 273.56 158.75 272.04" style="fill:#fff;opacity:0.5"></polygon><polygon points="177.3 361.96 181.88 369.75 191.21 366.27 189.68 358.25 184.13 353.17 178.28 357.69 177.3 361.96" style="fill:#fff;opacity:0.30000000000000004"></polygon><polygon points="163.12 374.72 167.69 382.51 177.02 379.02 175.49 371.01 169.94 365.93 164.09 370.45 163.12 374.72" style="fill:#fff;opacity:0.30000000000000004"></polygon><polygon points="224.88 406.4 229.46 414.2 238.79 410.71 237.25 402.7 231.7 397.62 225.85 402.14 224.88 406.4" style="fill:#fff;opacity:0.30000000000000004"></polygon><polygon points="222.34 390.12 225.15 394.89 230.87 392.76 229.93 387.85 226.53 384.73 222.94 387.5 222.34 390.12" style="fill:#fff;opacity:0.30000000000000004"></polygon><polygon points="214.43 401.1 216.47 404.57 220.62 403.02 219.93 399.45 217.46 397.19 214.86 399.2 214.43 401.1" style="fill:#fff;opacity:0.30000000000000004"></polygon><polygon points="236.71 397.01 238.48 397.32 239.15 395.45 237.74 394.66 236.26 394.85 236.19 396.31 236.71 397.01" style="fill:#fff;opacity:0.30000000000000004"></polygon><path d="M183.58,379.45l-2.87,4.83,3.35,6.6,9.05-2.7s4-2.76,3.48-4-2.38-7.94-2.38-7.94Z" style="fill:#fff;opacity:0.30000000000000004"></path><path d="M202.31,429.6l-2.87,4.83,3.35,6.6,9.05-2.7s4-2.76,3.47-4-4.79-7.21-4.79-7.21Z" style="fill:#fff;opacity:0.30000000000000004"></path><path d="M223.72,259s-.08.1-.25.26l-.78.73c-.69.63-1.67,1.6-3,2.74a107.16,107.16,0,0,1-12.15,8.84,138.31,138.31,0,0,1-19.83,10.19,191.93,191.93,0,0,1-25.89,8.64,283.12,283.12,0,0,1-48.9,7.94c-6.33.49-11.46.7-15,.79-1.77,0-3.15.07-4.08.07H92.73a1.41,1.41,0,0,1-.36,0,3.28,3.28,0,0,1,.36,0l1.06-.05,4.08-.16c3.54-.15,8.67-.42,15-1a294,294,0,0,0,48.8-8.07,193.94,193.94,0,0,0,25.83-8.59,141.34,141.34,0,0,0,19.82-10.05,114.66,114.66,0,0,0,12.22-8.69c1.37-1.11,2.38-2.06,3.09-2.66l.81-.68Z" style="fill:#263238"></path><path d="M223.72,259a42.56,42.56,0,0,1,4.17,3.19A55.07,55.07,0,0,1,238,273.67l0,.08-.07.07a131.65,131.65,0,0,1-22.12,15.64,240,240,0,0,1-33.35,15.62c-3.19,1.22-6.49,2.44-9.87,3.59-1.67.63-3.41,1.22-5.17,1.71-.87.27-1.76.53-2.65.76s-1.82.42-2.71.67c-7.22,1.85-14.82,3.5-22.7,4.85a226.59,226.59,0,0,1-24.55,2.86,133.74,133.74,0,0,1-26-.94l-.22,0v-.22a55.27,55.27,0,0,1,3.77-20.19v.17l-.13-.41a55.73,55.73,0,0,1-1.89-12.83,59.19,59.19,0,0,1,.88-12.72,55.92,55.92,0,0,1,9.44-22.68l.86-1.24c.29-.4.62-.78.93-1.18.63-.77,1.23-1.58,1.88-2.32,1.34-1.47,2.64-3,4.09-4.29a78.1,78.1,0,0,1,8.92-7.36,102.92,102.92,0,0,1,19.37-10.39h0l8.65-2.58h0a102.21,102.21,0,0,1,20.65-1.92A71.21,71.21,0,0,1,184.61,221a56.8,56.8,0,0,1,15,6.68,56.21,56.21,0,0,1,10.76,8.83,60,60,0,0,1,10.93,16.07c.94,2.05,1.55,3.66,1.93,4.76s.51,1.68.51,1.68l-.58-1.66c-.39-1.09-1-2.69-2-4.72a61.07,61.07,0,0,0-11-16,56.61,56.61,0,0,0-25.66-15.33,71.39,71.39,0,0,0-18.39-2.56,102.13,102.13,0,0,0-20.56,2h0l-8.65,2.6h0a102.83,102.83,0,0,0-19.26,10.37,76.12,76.12,0,0,0-8.86,7.32c-1.44,1.31-2.72,2.8-4,4.25-.65.74-1.24,1.54-1.87,2.31-.3.39-.62.77-.92,1.17l-.85,1.23a55.6,55.6,0,0,0-9.35,22.48,59.46,59.46,0,0,0-.86,12.61,55.45,55.45,0,0,0,1.87,12.7l.12.4,0,.09,0,.09a54.66,54.66,0,0,0-3.74,20l-.22-.26a134.12,134.12,0,0,0,25.86.94,226,226,0,0,0,24.5-2.83c7.87-1.34,15.44-3,22.67-4.82.91-.25,1.82-.43,2.7-.66s1.77-.48,2.64-.75c1.77-.5,3.46-1.06,5.14-1.7,3.4-1.14,6.68-2.35,9.88-3.56a242.91,242.91,0,0,0,33.33-15.52,132.57,132.57,0,0,0,22.14-15.52l0,.15a55.92,55.92,0,0,0-10-11.52c-1.3-1.14-2.35-1.93-3-2.47S223.72,259,223.72,259Z" style="fill:#263238"></path><path d="M132.15,222.11l-5.38-18a13.57,13.57,0,0,1,.86-10l20.21-37.25,10.92,6.53-19.09,34.39L151.46,235A29.89,29.89,0,0,1,137.88,239Z" style="fill:#FF725E"></path><path d="M159.84,229.19a6,6,0,0,1-.88,1,12.16,12.16,0,0,1-1.13,1.08c-.46.4-1,.89-1.58,1.34a22.73,22.73,0,0,1-2.05,1.46,26,26,0,0,1-2.49,1.47,31.66,31.66,0,0,1-6.15,2.43,30.55,30.55,0,0,1-6.55,1,27.17,27.17,0,0,1-2.89-.06,21.8,21.8,0,0,1-2.5-.29c-.76-.1-1.43-.3-2-.43a10.84,10.84,0,0,1-1.5-.43,6.77,6.77,0,0,1-1.25-.47c0-.11,1.83.54,4.84,1a21.9,21.9,0,0,0,2.47.23c.89.07,1.84,0,2.84,0a30.73,30.73,0,0,0,12.5-3.35c.89-.48,1.73-.92,2.48-1.41s1.44-1,2.06-1.39C158.47,230.5,159.77,229.11,159.84,229.19Z" style="fill:#263238"></path><g style="opacity:0.30000000000000004"><path d="M232.06,287.81A231.32,231.32,0,0,1,100.72,326.5l-3.25-7.42s32.86,3.42,74.44-10.4c42.84-14.23,58.66-29.29,58.66-29.29Z"></path></g><g style="opacity:0.30000000000000004"><path d="M182,442.52c-14.86-37-29.68-74.59-44-110.41l-24.61,2.62q24.38,56.1,48.77,112.19c2.13,4.9,4.43,10,8.7,13.23s10,4.82,13.25.62C187.76,456,185.22,450.65,182,442.52Z" style="fill:#fff"></path></g><path d="M248.93,451.32a5.16,5.16,0,0,1-.68.43l-2,1.14c-.86.5-1.93,1.09-3.19,1.74s-2.67,1.42-4.28,2.17-3.36,1.63-5.28,2.47-4,1.71-6.16,2.6c-4.38,1.73-9.26,3.46-14.47,5s-10.26,2.73-14.88,3.66c-2.31.44-4.51.87-6.58,1.17s-4,.59-5.77.8-3.37.37-4.78.51-2.62.22-3.61.27l-2.29.12a4.82,4.82,0,0,1-.8,0,3.86,3.86,0,0,1,.79-.11l2.28-.22c1-.08,2.2-.19,3.6-.36s3-.32,4.76-.58,3.69-.5,5.75-.87,4.25-.76,6.56-1.21c4.6-1,9.62-2.17,14.82-3.69s10.07-3.27,14.45-5c2.17-.89,4.25-1.7,6.16-2.56s3.68-1.64,5.29-2.4,3-1.48,4.31-2.1,2.34-1.19,3.22-1.66l2-1.06A4.26,4.26,0,0,1,248.93,451.32Z" style="fill:#263238"></path><path d="M154.76,157.76c3,1.83,4.79,4.37,4,5.66s-3.87.86-6.87-1-4.78-4.36-4-5.65S151.76,155.93,154.76,157.76Z" style="opacity:0.30000000000000004"></path><path d="M157.14,164.39a3.71,3.71,0,0,1-1.63,0,10.34,10.34,0,0,1-3.7-1.31,10.21,10.21,0,0,1-2.95-2.6,3.47,3.47,0,0,1-.79-1.42,13.68,13.68,0,0,0,9.07,5.33Z" style="fill:#263238"></path><path d="M135,197.87a5.11,5.11,0,0,1,2.26-.27,5.32,5.32,0,0,1,2.26.25,4.94,4.94,0,0,1-2.26.27A5.11,5.11,0,0,1,135,197.87Z" style="fill:#263238"></path><path d="M135.36,200.08c-.07-.13.78-.73,1.9-1.35a5.25,5.25,0,0,1,2.15-.89c.07.12-.78.72-1.9,1.34A5.54,5.54,0,0,1,135.36,200.08Z" style="fill:#263238"></path><path d="M124.49,283.14a52.78,52.78,0,0,1,1.5-7.27,51.61,51.61,0,0,1,2-7.14,53.1,53.1,0,0,1-1.5,7.27A51.61,51.61,0,0,1,124.49,283.14Z" style="fill:#fff"></path><path d="M162.2,259.35a18.68,18.68,0,0,1-3,0c-1.82,0-4.34,0-7.12.08s-5.29.31-7.1.48a18.73,18.73,0,0,1-3,.19,15.65,15.65,0,0,1,2.91-.56c1.82-.26,4.34-.52,7.13-.63a70.68,70.68,0,0,1,7.16.07A14.18,14.18,0,0,1,162.2,259.35Z" style="fill:#fff"></path><path d="M103.74,310.34a16.2,16.2,0,0,1,.86-4A15.84,15.84,0,0,1,106,302.5a16.88,16.88,0,0,1-.86,4A16.26,16.26,0,0,1,103.74,310.34Z" style="fill:#fff"></path><path d="M141.93,261.84a45.15,45.15,0,0,1-6.05,3.12,45.19,45.19,0,0,1-6.27,2.65,44.54,44.54,0,0,1,6-3.12A44.3,44.3,0,0,1,141.93,261.84Z" style="fill:#fff"></path><path d="M149.57,416.39c-.13.06-7.95-17.37-17.47-38.92s-17.12-39.07-17-39.13,8,17.37,17.47,38.92S149.7,416.33,149.57,416.39Z" style="fill:#fff"></path></g></svg>
